<mxfile host="app.diagrams.net" modified="2023-06-12T16:24:18.656Z" agent="Mozilla/5.0 (Macintosh; Intel Mac OS X 10_15_7) AppleWebKit/537.36 (KHTML, like Gecko) Chrome/114.0.0.0 Safari/537.36" etag="id8pdQskO2ePfbqAUlKy" version="21.3.7" type="device">
  <diagram name="Page-1" id="rbiUo5bFybXOO1fcTCTT">
    <mxGraphModel dx="1242" dy="795" grid="1" gridSize="10" guides="1" tooltips="1" connect="1" arrows="1" fold="1" page="1" pageScale="1" pageWidth="850" pageHeight="1100" math="0" shadow="0">
      <root>
        <mxCell id="0" />
        <mxCell id="1" parent="0" />
        <mxCell id="9J3SF0-3zK-d3_jPCRng-8" value="" style="rounded=0;whiteSpace=wrap;html=1;fillColor=#CCFF99;" parent="1" vertex="1">
          <mxGeometry x="40" y="520" width="760" height="310" as="geometry" />
        </mxCell>
        <mxCell id="9J3SF0-3zK-d3_jPCRng-42" value="" style="group" parent="1" vertex="1" connectable="0">
          <mxGeometry x="200" y="200" width="400" height="200" as="geometry" />
        </mxCell>
        <mxCell id="9J3SF0-3zK-d3_jPCRng-43" value="" style="rounded=0;whiteSpace=wrap;html=1;fillColor=#66B2FF;movable=1;resizable=1;rotatable=1;deletable=1;editable=1;locked=0;connectable=1;" parent="9J3SF0-3zK-d3_jPCRng-42" vertex="1">
          <mxGeometry width="400" height="200" as="geometry" />
        </mxCell>
        <mxCell id="9J3SF0-3zK-d3_jPCRng-44" value="Reaper" style="text;html=1;strokeColor=none;fillColor=none;align=center;verticalAlign=middle;whiteSpace=wrap;rounded=0;movable=1;resizable=1;rotatable=1;deletable=1;editable=1;locked=0;connectable=1;fontSize=22;" parent="9J3SF0-3zK-d3_jPCRng-42" vertex="1">
          <mxGeometry x="170" y="10" width="60" height="30" as="geometry" />
        </mxCell>
        <mxCell id="wtkJlvtXBfEeCUlwDUSq-3" value="Scheduled Job Executes (From Ingestion_Update event)" style="rounded=0;whiteSpace=wrap;html=1;" vertex="1" parent="9J3SF0-3zK-d3_jPCRng-42">
          <mxGeometry x="10" y="50" width="170" height="40" as="geometry" />
        </mxCell>
        <mxCell id="wtkJlvtXBfEeCUlwDUSq-9" style="edgeStyle=orthogonalEdgeStyle;rounded=0;orthogonalLoop=1;jettySize=auto;html=1;entryX=0;entryY=0.5;entryDx=0;entryDy=0;" edge="1" parent="9J3SF0-3zK-d3_jPCRng-42" source="wtkJlvtXBfEeCUlwDUSq-5" target="wtkJlvtXBfEeCUlwDUSq-7">
          <mxGeometry relative="1" as="geometry" />
        </mxCell>
        <mxCell id="wtkJlvtXBfEeCUlwDUSq-5" value="Pull Data" style="rounded=0;whiteSpace=wrap;html=1;" vertex="1" parent="9J3SF0-3zK-d3_jPCRng-42">
          <mxGeometry x="10" y="110" width="170" height="40" as="geometry" />
        </mxCell>
        <mxCell id="wtkJlvtXBfEeCUlwDUSq-7" value="Process Data" style="rounded=0;whiteSpace=wrap;html=1;" vertex="1" parent="9J3SF0-3zK-d3_jPCRng-42">
          <mxGeometry x="225" y="110" width="110" height="40" as="geometry" />
        </mxCell>
        <mxCell id="9J3SF0-3zK-d3_jPCRng-102" value="&lt;font color=&quot;#ffffff&quot;&gt;Event Stream&lt;/font&gt;" style="rounded=0;whiteSpace=wrap;html=1;fillColor=#006600;" parent="1" vertex="1">
          <mxGeometry x="75" y="690" width="700" height="60" as="geometry" />
        </mxCell>
        <mxCell id="9J3SF0-3zK-d3_jPCRng-108" value="" style="group" parent="1" vertex="1" connectable="0">
          <mxGeometry x="460" y="580" width="330" height="95" as="geometry" />
        </mxCell>
        <mxCell id="9J3SF0-3zK-d3_jPCRng-104" value="" style="rounded=0;whiteSpace=wrap;html=1;fillColor=#97D077;" parent="9J3SF0-3zK-d3_jPCRng-108" vertex="1">
          <mxGeometry width="330" height="90" as="geometry" />
        </mxCell>
        <mxCell id="9J3SF0-3zK-d3_jPCRng-103" value="&lt;font color=&quot;#ffffff&quot;&gt;Raw Topic&lt;/font&gt;" style="rounded=0;whiteSpace=wrap;html=1;fillColor=#006600;" parent="9J3SF0-3zK-d3_jPCRng-108" vertex="1">
          <mxGeometry x="39.99883720930232" y="20" width="53.72093023255814" height="35" as="geometry" />
        </mxCell>
        <mxCell id="9J3SF0-3zK-d3_jPCRng-106" value="&lt;font color=&quot;#ffffff&quot;&gt;Transformed Topic&lt;/font&gt;" style="rounded=0;whiteSpace=wrap;html=1;fillColor=#006600;" parent="9J3SF0-3zK-d3_jPCRng-108" vertex="1">
          <mxGeometry x="118.95348837209302" y="20" width="88.25581395348837" height="35" as="geometry" />
        </mxCell>
        <mxCell id="9J3SF0-3zK-d3_jPCRng-107" value="&lt;font color=&quot;#ffffff&quot;&gt;Validated Topic&lt;/font&gt;" style="rounded=0;whiteSpace=wrap;html=1;fillColor=#006600;" parent="9J3SF0-3zK-d3_jPCRng-108" vertex="1">
          <mxGeometry x="234.06976744186045" y="20" width="88.25581395348837" height="35" as="geometry" />
        </mxCell>
        <mxCell id="9J3SF0-3zK-d3_jPCRng-128" style="edgeStyle=orthogonalEdgeStyle;rounded=0;orthogonalLoop=1;jettySize=auto;html=1;startArrow=classic;startFill=1;" parent="1" source="9J3SF0-3zK-d3_jPCRng-6" target="9J3SF0-3zK-d3_jPCRng-102" edge="1">
          <mxGeometry relative="1" as="geometry">
            <Array as="points">
              <mxPoint x="120" y="690" />
              <mxPoint x="120" y="690" />
            </Array>
          </mxGeometry>
        </mxCell>
        <mxCell id="wtkJlvtXBfEeCUlwDUSq-6" style="edgeStyle=orthogonalEdgeStyle;rounded=0;orthogonalLoop=1;jettySize=auto;html=1;" edge="1" parent="1" source="9J3SF0-3zK-d3_jPCRng-6" target="wtkJlvtXBfEeCUlwDUSq-5">
          <mxGeometry relative="1" as="geometry">
            <mxPoint x="250" y="350" as="targetPoint" />
            <Array as="points">
              <mxPoint x="120" y="410" />
              <mxPoint x="240" y="410" />
            </Array>
          </mxGeometry>
        </mxCell>
        <mxCell id="9J3SF0-3zK-d3_jPCRng-6" value="Data_Extract_Start" style="rounded=0;whiteSpace=wrap;html=1;fillColor=#FF9999;" parent="1" vertex="1">
          <mxGeometry x="80" y="570" width="120" height="40" as="geometry" />
        </mxCell>
        <mxCell id="ZxNKODZLQWNlTjTZxuV1-7" value="Data Extract Start" style="rounded=0;whiteSpace=wrap;html=1;fontSize=29;" parent="1" vertex="1">
          <mxGeometry x="195" y="40" width="440" height="80" as="geometry" />
        </mxCell>
        <mxCell id="ZxNKODZLQWNlTjTZxuV1-34" style="edgeStyle=orthogonalEdgeStyle;rounded=0;orthogonalLoop=1;jettySize=auto;html=1;exitX=0;exitY=0.5;exitDx=0;exitDy=0;entryX=0;entryY=0.5;entryDx=0;entryDy=0;" parent="1" source="wtkJlvtXBfEeCUlwDUSq-3" edge="1" target="9J3SF0-3zK-d3_jPCRng-6">
          <mxGeometry relative="1" as="geometry">
            <mxPoint x="220" y="570" as="targetPoint" />
            <Array as="points">
              <mxPoint x="60" y="270" />
              <mxPoint x="60" y="590" />
            </Array>
          </mxGeometry>
        </mxCell>
        <mxCell id="wtkJlvtXBfEeCUlwDUSq-19" style="edgeStyle=orthogonalEdgeStyle;rounded=0;orthogonalLoop=1;jettySize=auto;html=1;entryX=0.279;entryY=0;entryDx=0;entryDy=0;entryPerimeter=0;" edge="1" parent="1" source="wtkJlvtXBfEeCUlwDUSq-8" target="9J3SF0-3zK-d3_jPCRng-102">
          <mxGeometry relative="1" as="geometry" />
        </mxCell>
        <mxCell id="wtkJlvtXBfEeCUlwDUSq-8" value="Data_Ingest_Start" style="rounded=0;whiteSpace=wrap;html=1;fillColor=#FF9999;" vertex="1" parent="1">
          <mxGeometry x="210" y="570" width="120" height="40" as="geometry" />
        </mxCell>
        <mxCell id="wtkJlvtXBfEeCUlwDUSq-10" style="edgeStyle=orthogonalEdgeStyle;rounded=0;orthogonalLoop=1;jettySize=auto;html=1;" edge="1" parent="1" source="wtkJlvtXBfEeCUlwDUSq-7">
          <mxGeometry relative="1" as="geometry">
            <mxPoint x="270" y="570" as="targetPoint" />
            <Array as="points">
              <mxPoint x="440" y="420" />
              <mxPoint x="270" y="420" />
            </Array>
          </mxGeometry>
        </mxCell>
        <mxCell id="wtkJlvtXBfEeCUlwDUSq-13" style="edgeStyle=orthogonalEdgeStyle;rounded=0;orthogonalLoop=1;jettySize=auto;html=1;entryX=0.5;entryY=0;entryDx=0;entryDy=0;" edge="1" parent="1" source="wtkJlvtXBfEeCUlwDUSq-7" target="9J3SF0-3zK-d3_jPCRng-103">
          <mxGeometry relative="1" as="geometry">
            <Array as="points">
              <mxPoint x="480" y="450" />
              <mxPoint x="527" y="450" />
            </Array>
          </mxGeometry>
        </mxCell>
        <mxCell id="wtkJlvtXBfEeCUlwDUSq-14" value="Create Topic and Produce Data" style="rounded=0;whiteSpace=wrap;html=1;" vertex="1" parent="1">
          <mxGeometry x="470" y="470" width="110" height="40" as="geometry" />
        </mxCell>
        <mxCell id="wtkJlvtXBfEeCUlwDUSq-20" style="edgeStyle=orthogonalEdgeStyle;rounded=0;orthogonalLoop=1;jettySize=auto;html=1;entryX=0.457;entryY=0.033;entryDx=0;entryDy=0;entryPerimeter=0;" edge="1" parent="1" source="wtkJlvtXBfEeCUlwDUSq-15" target="9J3SF0-3zK-d3_jPCRng-102">
          <mxGeometry relative="1" as="geometry" />
        </mxCell>
        <mxCell id="wtkJlvtXBfEeCUlwDUSq-15" value="Data_Extract_End" style="rounded=0;whiteSpace=wrap;html=1;fillColor=#FF9999;" vertex="1" parent="1">
          <mxGeometry x="340" y="570" width="110" height="40" as="geometry" />
        </mxCell>
        <mxCell id="wtkJlvtXBfEeCUlwDUSq-16" style="edgeStyle=orthogonalEdgeStyle;rounded=0;orthogonalLoop=1;jettySize=auto;html=1;" edge="1" parent="1" source="wtkJlvtXBfEeCUlwDUSq-7" target="wtkJlvtXBfEeCUlwDUSq-15">
          <mxGeometry relative="1" as="geometry">
            <Array as="points">
              <mxPoint x="460" y="450" />
              <mxPoint x="395" y="450" />
            </Array>
          </mxGeometry>
        </mxCell>
        <mxCell id="wtkJlvtXBfEeCUlwDUSq-17" value="Notify end of data" style="rounded=0;whiteSpace=wrap;html=1;" vertex="1" parent="1">
          <mxGeometry x="340" y="470" width="110" height="40" as="geometry" />
        </mxCell>
      </root>
    </mxGraphModel>
  </diagram>
</mxfile>
